<?xml version="1.0" encoding="UTF-8"?>
<svg version="1.1" xmlns="http://www.w3.org/2000/svg" width="1427" height="893">
<path d="M0 0 C470.91 0 941.82 0 1427 0 C1427 272.58 1427 545.16 1427 826 C1420.07 828.31 1413.14 830.62 1406 833 C1403.69 833.99 1401.38 834.98 1399 836 C1397.49005031 836.5282302 1395.97120168 837.03234503 1394.44140625 837.5 C1393.64283203 837.7475 1392.84425781 837.995 1392.02148438 838.25 C1391.21001953 838.4975 1390.39855469 838.745 1389.5625 839 C1384.27582529 840.62017804 1379.06853762 842.32194491 1373.90454102 844.29931641 C1370.87490092 845.4139257 1367.79068003 846.30233061 1364.6875 847.1875 C1363.49511719 847.53167969 1362.30273438 847.87585938 1361.07421875 848.23046875 C1358 849 1358 849 1355 849 C1355 849.66 1355 850.32 1355 851 C1354.08710205 851.23187012 1353.1742041 851.46374023 1352.23364258 851.70263672 C1348.83173646 852.56841912 1345.43063652 853.43724132 1342.0300293 854.30810547 C1340.56093785 854.68366755 1339.09153971 855.05803216 1337.62182617 855.43115234 C1335.50356671 855.96914577 1333.38646484 856.51150353 1331.26953125 857.0546875 C1329.99698486 857.37937012 1328.72443848 857.70405273 1327.41333008 858.03857422 C1324.49177446 858.86148288 1321.80642264 859.86354349 1319 861 C1315.340702 861.99474 1311.63751447 862.79581109 1307.9375 863.625 C1306.94427734 863.85445312 1305.95105469 864.08390625 1304.92773438 864.3203125 C1303.97060547 864.536875 1303.01347656 864.7534375 1302.02734375 864.9765625 C1301.15843506 865.17330566 1300.28952637 865.37004883 1299.39428711 865.57275391 C1297 866 1297 866 1293 866 C1293 866.66 1293 867.32 1293 868 C1291.88665283 868.2266333 1290.77330566 868.4532666 1289.6262207 868.68676758 C1285.43430534 869.54054347 1281.24284751 870.39654811 1277.05151367 871.25317383 C1275.24890039 871.62128035 1273.446169 871.98880902 1271.64331055 872.35571289 C1269.02880839 872.88790675 1266.41467533 873.4218591 1263.80078125 873.95703125 C1262.51243378 874.22062691 1262.51243378 874.22062691 1261.19805908 874.48954773 C1256.53943004 875.45050985 1251.90857894 876.48096169 1247.28515625 877.6015625 C1239.63976398 879.40065849 1231.89452903 880.4581617 1224.125 881.5625 C1221.93001211 881.87527366 1219.73535518 882.18979285 1217.54147339 882.51023865 C1215.56753172 882.79855477 1213.59263084 883.08028163 1211.61767578 883.36157227 C1207.9929939 883.93372285 1207.9929939 883.93372285 1204.52050781 885.01367188 C1200.76353687 886.06624903 1197.09399375 886.58366917 1193.2265625 886.96484375 C1192.48460129 887.04277664 1191.74264008 887.12070953 1190.97819519 887.20100403 C1188.52791019 887.45506493 1186.07673842 887.69788589 1183.625 887.9375 C1182.75990814 888.02237671 1181.89481628 888.10725342 1181.00350952 888.19470215 C1176.44418685 888.63924065 1171.88396169 889.07281595 1167.32275391 889.49755859 C1164.00802853 889.80700042 1160.69551033 890.13033284 1157.38427734 890.47509766 C1103.63149488 896.03457778 1048.21865255 894.65747507 994.53338623 889.25317383 C992.15074333 889.01506453 989.76741214 888.78731698 987.38330078 888.56445312 C967.8394282 886.73227192 967.8394282 886.73227192 958.95703125 884.59375 C953.72730571 883.33903295 948.50826314 882.36775702 943.19921875 881.53515625 C942.42651642 881.41389877 941.65381409 881.2926413 940.85769653 881.16770935 C937.67308778 880.67232349 934.48747089 880.18386643 931.30102539 879.70043945 C921.63894709 878.22686584 912.21381365 876.42839535 902.75708008 873.95678711 C897.04688758 872.50261566 891.28339306 871.37004811 885.5 870.25 C883.81970703 869.91935547 883.81970703 869.91935547 882.10546875 869.58203125 C879.4043371 869.05103956 876.70255291 868.52370044 874 868 C874 867.34 874 866.68 874 866 C872.89527344 865.88398437 871.79054688 865.76796875 870.65234375 865.6484375 C865.53187623 865.00626666 860.5733346 863.83887197 855.5625 862.625 C854.67240234 862.41617188 853.78230469 862.20734375 852.86523438 861.9921875 C847.92239242 860.80792734 843.13264179 859.41848785 838.32885742 857.76318359 C832.96212138 856.00446498 827.45938093 854.67327156 821.99609375 853.25 C816.76546393 851.85709997 811.97382683 850.15953682 807 848 C804.02388374 847.07431144 801.01605154 846.28437582 798 845.5 C792.41720079 844.04809752 787.30614636 842.30266729 782 840 C778.91698288 838.95098063 775.80345949 838.00843291 772.6875 837.0625 C766.88182476 835.26870159 761.22189061 833.37783079 755.62109375 831.01171875 C749.53861304 828.66393559 743.23732587 826.88822272 737 825 C737 824.34 737 823.68 737 823 C735.7625 822.7525 734.525 822.505 733.25 822.25 C727.35173142 820.95181648 721.69655237 818.98560032 716 817 C716 816.34 716 815.68 716 815 C714.824375 814.773125 713.64875 814.54625 712.4375 814.3125 C705.45686044 812.77989164 698.74623825 810.328741 692 808 C692 807.34 692 806.68 692 806 C691.31035156 805.81824219 690.62070312 805.63648438 689.91015625 805.44921875 C683.86296885 803.83165834 677.91183168 802.05819325 672 800 C672 799.34 672 798.68 672 798 C671.41734375 797.82984375 670.8346875 797.6596875 670.234375 797.484375 C663.43669796 795.47499877 656.71388257 793.2725685 650 791 C650 790.34 650 789.68 650 789 C649.05060547 788.84724609 649.05060547 788.84724609 648.08203125 788.69140625 C643.84447063 787.74077478 639.79589245 786.33506681 635.6875 784.9375 C634.85154297 784.65583984 634.01558594 784.37417969 633.15429688 784.08398438 C631.10194376 783.39204818 629.05084517 782.69639291 627 782 C627 781.34 627 780.68 627 780 C626.44054687 779.90203125 625.88109375 779.8040625 625.3046875 779.703125 C617.72441612 778.28944095 610.38780121 776.19292082 603 774 C603 773.34 603 772.68 603 772 C601.40671875 771.84724609 601.40671875 771.84724609 599.78125 771.69140625 C593.90251258 770.95656407 588.22820779 769.41408945 582.5 767.9375 C581.39140625 767.65583984 580.2828125 767.37417969 579.140625 767.08398438 C576.4259563 766.39361604 573.71249362 765.69885625 571 765 C571 764.34 571 763.68 571 763 C570.11183594 762.88785156 569.22367188 762.77570312 568.30859375 762.66015625 C562.51563808 761.83259115 556.79524679 760.60099665 551.0625 759.4375 C549.90169922 759.20353516 548.74089844 758.96957031 547.54492188 758.72851562 C544.69625637 758.15409336 541.84796743 757.57787154 539 757 C539 756.34 539 755.68 539 755 C538.44199707 754.95681641 537.88399414 754.91363281 537.30908203 754.86914062 C529.74111837 754.20509712 522.34003478 752.8853458 514.875 751.5 C505.72653071 749.75586013 505.72653071 749.75586013 496.5078125 748.46875 C493 748 493 748 490.17749023 747.03100586 C486.9644226 745.98845614 483.99965882 745.46182123 480.65234375 745.03515625 C478.80600342 744.79708252 478.80600342 744.79708252 476.92236328 744.55419922 C475.5941204 744.38993618 474.2658314 744.22604566 472.9375 744.0625 C471.55711218 743.88831611 470.17674133 743.71399763 468.79638672 743.53955078 C457.01907506 742.0664936 445.22078599 740.83144919 433.41015625 739.65625 C429.03916707 739.21857855 424.68013066 738.73960281 420.32592773 738.15820312 C398.37291378 735.41141247 376.16840114 735.8120099 354.08325195 735.81469727 C350.59263875 735.81477801 347.10215826 735.80790379 343.61157227 735.79418945 C325.28289378 735.72343539 307.00313052 735.85632013 288.69921875 736.88671875 C287.98211039 736.92566568 287.26500202 736.96461262 286.5261631 737.00473976 C278.82943675 737.43475843 271.28425002 738.16240165 263.69197083 739.53355408 C259.73831472 740.21861602 255.77545501 740.60437559 251.78125 740.96484375 C250.09837427 741.12509296 248.41551344 741.28549873 246.73266602 741.44604492 C245.44768723 741.56645645 245.44768723 741.56645645 244.13674927 741.68930054 C226.31017883 743.35208157 226.31017883 743.35208157 208.5625 745.6875 C207.77230469 745.80665771 206.98210937 745.92581543 206.16796875 746.04858398 C202.79338312 746.36563899 202.79338312 746.36563899 200 748 C198.27898368 748.33418158 196.54707156 748.61255835 194.8125 748.8671875 C193.18658936 749.11033691 193.18658936 749.11033691 191.52783203 749.35839844 C190.36364746 749.52887695 189.19946289 749.69935547 188 749.875 C178.69979291 751.26423198 169.43848093 752.75702344 160.1953125 754.484375 C157 755 157 755 153 755 C153 755.66 153 756.32 153 757 C151.70751343 757.24907104 151.70751343 757.24907104 150.38891602 757.50317383 C147.15064172 758.13021022 143.91352151 758.76267448 140.67700195 759.39868164 C139.28386362 759.67132562 137.89031554 759.94188538 136.49633789 760.21020508 C129.637178 761.53183007 122.89428857 762.85429238 116.30493164 765.2253418 C109.95759944 767.3585994 103.35361914 768.77057206 96.86132812 770.39453125 C90.72722753 771.95294293 84.89328221 773.70504989 79 776 C75.47440083 777.11304109 71.91320457 778.10100782 68.35546875 779.10546875 C64.14786778 780.31313484 60.0592337 781.68061745 55.97314453 783.25048828 C52.73922134 784.47891493 49.46629622 785.58569132 46.1875 786.6875 C45.53330078 786.91244141 44.87910156 787.13738281 44.20507812 787.36914062 C41.33786759 788.33268737 39.04753674 789 36 789 C36 789.66 36 790.32 36 791 C33.10538781 791.9829057 30.20941921 792.96143701 27.3125 793.9375 C26.49587891 794.21529297 25.67925781 794.49308594 24.83789062 794.77929688 C20.9154656 796.09735873 17.09869486 797.34053586 13 798 C13 798.66 13 799.32 13 800 C11.39850114 800.67305018 9.79368971 801.33822227 8.1875 802 C7.29417969 802.37125 6.40085937 802.7425 5.48046875 803.125 C3 804 3 804 0 804 C0 538.68 0 273.36 0 0 Z " fill="#150C58" transform="translate(0,0)"/>
</svg>
